<svg width="562" height="124" viewBox="0 0 562 124" fill="none" xmlns="http://www.w3.org/2000/svg">
<rect x="4.41992" y="93.5001" width="2.92001" height="2.92001" fill="white" stroke="white"/>
<rect x="4.41992" y="97.4205" width="2.92001" height="2.92001" fill="white" stroke="white"/>
<rect x="555.02" y="93.5001" width="2.92001" height="2.92001" fill="white" stroke="white"/>
<rect x="555.02" y="97.4205" width="2.92001" height="2.92001" fill="white" stroke="white"/>
<rect x="8.33984" y="101.341" width="2.92001" height="2.92001" fill="white" stroke="white"/>
<rect x="12.2598" y="105.261" width="2.92001" height="2.92001" fill="white" stroke="white"/>
<rect x="16.1797" y="109.18" width="2.85904" height="2.92001" fill="white" stroke="white"/>
<rect x="20.0391" y="113.1" width="2.85904" height="2.92001" fill="white" stroke="white"/>
<rect x="31.5" y="120.5" width="499" height="3" fill="white" stroke="white"/>
<rect x="24.0195" y="117.02" width="2.92001" height="2.92001" fill="white" stroke="white"/>
<rect x="27.9395" y="117.02" width="2.92001" height="2.92001" fill="white" stroke="white"/>
<rect x="-0.5" y="0.5" width="2.92001" height="2.92001" transform="matrix(-1 0 0 1 553.52 100.841)" fill="white" stroke="white"/>
<rect x="-0.5" y="0.5" width="2.92001" height="2.92001" transform="matrix(-1 0 0 1 549.6 104.761)" fill="white" stroke="white"/>
<rect x="-0.5" y="0.5" width="2.92001" height="2.92001" transform="matrix(-1 0 0 1 545.68 108.68)" fill="white" stroke="white"/>
<rect x="-0.5" y="0.5" width="2.92001" height="2.92001" transform="matrix(-1 0 0 1 541.76 112.6)" fill="white" stroke="white"/>
<rect x="-0.5" y="0.5" width="2.92001" height="2.92001" transform="matrix(-1 0 0 1 537.84 116.521)" fill="white" stroke="white"/>
<rect x="-0.5" y="0.5" width="2.92001" height="2.92001" transform="matrix(-1 0 0 1 533.92 116.521)" fill="white" stroke="white"/>
<rect x="0.5" y="31.5" width="3" height="61" fill="white" stroke="white"/>
<rect x="558.5" y="31.5001" width="3" height="61" fill="white" stroke="white"/>
<rect x="0.5" y="-0.5" width="2.92001" height="2.92001" transform="matrix(1 0 0 -1 3.91992 30.3604)" fill="white" stroke="white"/>
<rect x="0.5" y="-0.5" width="2.92001" height="2.92001" transform="matrix(1 0 0 -1 3.91992 26.4399)" fill="white" stroke="white"/>
<rect x="0.5" y="-0.5" width="2.92001" height="2.92001" transform="matrix(1 0 0 -1 555 30.3602)" fill="white" stroke="white"/>
<rect x="0.5" y="-0.5" width="2.92001" height="2.92001" transform="matrix(1 0 0 -1 555 26.4393)" fill="white" stroke="white"/>
<rect x="0.5" y="-0.5" width="2.92001" height="2.92001" transform="matrix(1 0 0 -1 7.83984 22.5195)" fill="white" stroke="white"/>
<rect x="0.5" y="-0.5" width="2.92001" height="2.92001" transform="matrix(1 0 0 -1 11.7598 18.5992)" fill="white" stroke="white"/>
<rect x="0.5" y="-0.5" width="2.92001" height="2.92001" transform="matrix(1 0 0 -1 15.6797 14.6805)" fill="white" stroke="white"/>
<rect x="0.5" y="-0.5" width="2.92001" height="2.92001" transform="matrix(1 0 0 -1 19.5996 10.7601)" fill="white" stroke="white"/>
<rect x="0.5" y="-0.5" width="499" height="3" transform="matrix(1 0 0 -1 31 3)" fill="white" stroke="white"/>
<rect x="0.5" y="-0.5" width="2.92001" height="2.92001" transform="matrix(1 0 0 -1 23.5195 6.83984)" fill="white" stroke="white"/>
<rect x="0.5" y="-0.5" width="2.92001" height="2.92001" transform="matrix(1 0 0 -1 27.4395 6.83984)" fill="white" stroke="white"/>
<rect x="554.02" y="23.0195" width="2.92001" height="2.92001" transform="rotate(-180 554.02 23.0195)" fill="white" stroke="white"/>
<rect x="550.1" y="19.0992" width="2.92001" height="2.92001" transform="rotate(-180 550.1 19.0992)" fill="white" stroke="white"/>
<rect x="546.18" y="15.1797" width="2.92001" height="2.92001" transform="rotate(-180 546.18 15.1797)" fill="white" stroke="white"/>
<rect x="542.26" y="11.2598" width="2.92001" height="2.92001" transform="rotate(-180 542.26 11.2598)" fill="white" stroke="white"/>
<rect x="538.34" y="7.33984" width="2.92001" height="2.92001" transform="rotate(-180 538.34 7.33984)" fill="white" stroke="white"/>
<rect x="534.42" y="7.33984" width="2.92001" height="2.92001" transform="rotate(-180 534.42 7.33984)" fill="white" stroke="white"/>
</svg>
